<svg width="19" height="19" viewBox="0 0 19 19" fill="none" xmlns="http://www.w3.org/2000/svg">
<g id="Facebook">
<path id="Vector" d="M13.904 0.79528L11.7053 0.791656C9.2352 0.791656 7.6389 2.47402 7.6389 5.07792V7.05418H5.42824C5.23721 7.05418 5.08252 7.21326 5.08252 7.40949V10.2729C5.08252 10.4691 5.23739 10.628 5.42824 10.628H7.6389V17.8532C7.6389 18.0494 7.79359 18.2083 7.98462 18.2083H10.8689C11.0599 18.2083 11.2146 18.0492 11.2146 17.8532V10.628H13.7994C13.9904 10.628 14.1451 10.4691 14.1451 10.2729L14.1462 7.40949C14.1462 7.31527 14.1097 7.22504 14.0449 7.15836C13.9802 7.09168 13.892 7.05418 13.8003 7.05418H11.2146V5.37888C11.2146 4.57367 11.4014 4.1649 12.4225 4.1649L13.9036 4.16435C14.0945 4.16435 14.2492 4.00527 14.2492 3.80922V1.15042C14.2492 0.954548 14.0947 0.795643 13.904 0.79528Z" fill="white"/>
</g>
</svg>
