<svg width="21" height="21" viewBox="0 0 21 21" fill="none" xmlns="http://www.w3.org/2000/svg">
<g id="Instagram (filled)">
<g id="Subtract">
<mask id="path-1-inside-1_8_53" fill="white">
<path fill-rule="evenodd" clip-rule="evenodd" d="M2.66911 3.73378C1.75 4.99882 1.75 6.80338 1.75 10.4125V10.5875C1.75 14.1966 1.75 16.0012 2.66911 17.2662C2.96594 17.6748 3.32523 18.0341 3.73378 18.3309C4.99882 19.25 6.80338 19.25 10.4125 19.25H10.5875C14.1966 19.25 16.0012 19.25 17.2662 18.3309C17.6748 18.0341 18.0341 17.6748 18.3309 17.2662C19.25 16.0012 19.25 14.1966 19.25 10.5875V10.4125C19.25 6.80338 19.25 4.99882 18.3309 3.73378C18.0341 3.32523 17.6748 2.96594 17.2662 2.66911C16.0012 1.75 14.1966 1.75 10.5875 1.75H10.4125C6.80338 1.75 4.99882 1.75 3.73378 2.66911C3.32523 2.96594 2.96594 3.32523 2.66911 3.73378ZM7.32652 10.5C7.32652 8.74742 8.74747 7.32647 10.5001 7.32647C12.2526 7.32647 13.6736 8.74742 13.6736 10.5C13.6736 12.2526 12.2526 13.6735 10.5001 13.6735C8.74747 13.6735 7.32652 12.2526 7.32652 10.5Z"/>
</mask>
<path d="M2.66911 3.73378L3.73094 4.50525L3.73094 4.50525L2.66911 3.73378ZM2.66911 17.2662L3.73094 16.4947H3.73094L2.66911 17.2662ZM3.73378 18.3309L4.50525 17.2691H4.50525L3.73378 18.3309ZM17.2662 18.3309L16.4947 17.2691L17.2662 18.3309ZM18.3309 17.2662L17.2691 16.4947L18.3309 17.2662ZM18.3309 3.73378L17.2691 4.50525V4.50525L18.3309 3.73378ZM17.2662 2.66911L16.4947 3.73094V3.73094L17.2662 2.66911ZM3.73378 2.66911L4.50525 3.73094L4.50525 3.73094L3.73378 2.66911ZM3.0625 10.4125C3.0625 8.5787 3.0643 7.30879 3.16975 6.33549C3.27254 5.38675 3.46104 4.87674 3.73094 4.50525L1.60727 2.96232C0.958069 3.85587 0.687011 4.88066 0.560024 6.05274C0.435698 7.20026 0.4375 8.63718 0.4375 10.4125H3.0625ZM3.0625 10.5875V10.4125H0.4375V10.5875H3.0625ZM3.73094 16.4947C3.46104 16.1233 3.27254 15.6133 3.16975 14.6645C3.0643 13.6912 3.0625 12.4213 3.0625 10.5875H0.4375C0.4375 12.3628 0.435698 13.7997 0.560024 14.9473C0.687011 16.1193 0.958069 17.1441 1.60727 18.0377L3.73094 16.4947ZM4.50525 17.2691C4.20812 17.0532 3.94682 16.7919 3.73094 16.4947L1.60727 18.0377C1.98506 18.5577 2.44234 19.0149 2.96232 19.3927L4.50525 17.2691ZM10.4125 17.9375C8.5787 17.9375 7.30879 17.9357 6.33549 17.8302C5.38675 17.7275 4.87674 17.539 4.50525 17.2691L2.96232 19.3927C3.85587 20.0419 4.88066 20.313 6.05274 20.44C7.20026 20.5643 8.63718 20.5625 10.4125 20.5625V17.9375ZM10.5875 17.9375H10.4125V20.5625H10.5875V17.9375ZM16.4947 17.2691C16.1233 17.539 15.6133 17.7275 14.6645 17.8302C13.6912 17.9357 12.4213 17.9375 10.5875 17.9375V20.5625C12.3628 20.5625 13.7997 20.5643 14.9473 20.44C16.1193 20.313 17.1441 20.0419 18.0377 19.3927L16.4947 17.2691ZM17.2691 16.4947C17.0532 16.7919 16.7919 17.0532 16.4947 17.2691L18.0377 19.3927C18.5577 19.0149 19.0149 18.5577 19.3927 18.0377L17.2691 16.4947ZM17.9375 10.5875C17.9375 12.4213 17.9357 13.6912 17.8302 14.6645C17.7275 15.6133 17.539 16.1233 17.2691 16.4947L19.3927 18.0377C20.0419 17.1441 20.313 16.1193 20.44 14.9473C20.5643 13.7997 20.5625 12.3628 20.5625 10.5875H17.9375ZM17.9375 10.4125V10.5875H20.5625V10.4125H17.9375ZM17.2691 4.50525C17.539 4.87674 17.7275 5.38675 17.8302 6.33549C17.9357 7.30879 17.9375 8.5787 17.9375 10.4125H20.5625C20.5625 8.63718 20.5643 7.20026 20.44 6.05274C20.313 4.88066 20.0419 3.85587 19.3927 2.96232L17.2691 4.50525ZM16.4947 3.73094C16.7919 3.94682 17.0532 4.20812 17.2691 4.50525L19.3927 2.96232C19.0149 2.44234 18.5577 1.98506 18.0377 1.60727L16.4947 3.73094ZM10.5875 3.0625C12.4213 3.0625 13.6912 3.0643 14.6645 3.16975C15.6133 3.27254 16.1233 3.46104 16.4947 3.73094L18.0377 1.60727C17.1441 0.958069 16.1193 0.687011 14.9473 0.560024C13.7997 0.435698 12.3628 0.4375 10.5875 0.4375V3.0625ZM10.4125 3.0625H10.5875V0.4375H10.4125V3.0625ZM4.50525 3.73094C4.87674 3.46104 5.38675 3.27254 6.33549 3.16975C7.30879 3.0643 8.5787 3.0625 10.4125 3.0625V0.4375C8.63718 0.4375 7.20026 0.435698 6.05274 0.560024C4.88066 0.687011 3.85587 0.958069 2.96232 1.60727L4.50525 3.73094ZM3.73094 4.50525C3.94682 4.20812 4.20812 3.94682 4.50525 3.73094L2.96232 1.60727C2.44234 1.98506 1.98506 2.44234 1.60727 2.96232L3.73094 4.50525ZM10.5001 6.01397C8.0226 6.01397 6.01402 8.02254 6.01402 10.5H8.63902C8.63902 9.47229 9.47234 8.63897 10.5001 8.63897V6.01397ZM14.9861 10.5C14.9861 8.02254 12.9775 6.01397 10.5001 6.01397V8.63897C11.5278 8.63897 12.3611 9.47229 12.3611 10.5H14.9861ZM10.5001 14.986C12.9775 14.986 14.9861 12.9775 14.9861 10.5H12.3611C12.3611 11.5277 11.5278 12.361 10.5001 12.361V14.986ZM6.01402 10.5C6.01402 12.9775 8.0226 14.986 10.5001 14.986V12.361C9.47234 12.361 8.63902 11.5277 8.63902 10.5H6.01402Z" fill="white" mask="url(#path-1-inside-1_8_53)"/>
</g>
<circle id="Ellipse 1" cx="15.216" cy="5.86053" r="1.07232" fill="white"/>
</g>
</svg>
