<svg width="1920" height="809" viewBox="0 0 1920 809" fill="none" xmlns="http://www.w3.org/2000/svg">
<path d="M37.321 59.1409C-30.858 26.5238 -32.9364 9.37525 -72 0V6.45173C-67.345 25.0718 -68.7741 43.9081 -68.7741 63.0836C-68.7741 105.436 -65.0706 147.713 -62.3224 189.968C-57.5775 262.921 -57.7816 335.713 -51.0319 408.61C-44.993 473.829 -44.6021 539.534 -46.3723 605.029C-47.0704 630.858 -51.9763 653.09 -37.9492 676.715C-8.58033 726.178 106.434 708.426 150.943 699.296C296.61 669.415 336.5 608.552 508 594.276C793.4 570.519 1081.96 631.762 1362.5 674.923C1604.1 712.092 1730.96 856.85 1980.37 792.488C2020.3 782.182 2005.95 706.459 2005.46 679.224C2003.89 592.231 1991.44 504.294 1984.67 417.57C1979.56 352.107 1971.55 286.833 1967.11 221.33C1966.01 205.235 1955.81 193.291 1947.57 179.394C1894 88.9892 1706.11 22.5811 1601.51 22.5811C1452.53 22.5811 1285.91 44.2655 1143.43 91.7579C1042.4 125.436 945.5 139.5 825.328 144.985C705.156 150.469 420.5 126.5 312.416 117.565C204.331 108.63 105.5 91.7579 37.321 59.1409Z" fill="#F0F9FF"/>
</svg>
