<svg width="17" height="17" viewBox="0 0 17 17" fill="none" xmlns="http://www.w3.org/2000/svg">
<path d="M5.71922 1.5H3.5C2.39543 1.5 1.5 2.39543 1.5 3.5V5.5C1.5 11.0228 5.97715 15.5 11.5 15.5H13.5C14.6046 15.5 15.5 14.6046 15.5 13.5V12.118C15.5 11.7393 15.286 11.393 14.9472 11.2236L12.5313 10.0156C11.987 9.74349 11.3278 10.0165 11.1354 10.5938L10.8376 11.4871C10.6447 12.0658 10.0512 12.4102 9.45309 12.2906C7.05929 11.8119 5.18814 9.94071 4.70938 7.54691C4.58976 6.94882 4.93422 6.35526 5.51286 6.16238L6.62149 5.79284C7.11721 5.6276 7.40214 5.10855 7.2754 4.60162L6.68937 2.25746C6.57807 1.8123 6.17809 1.5 5.71922 1.5Z" stroke="white" stroke-width="1.5"/>
</svg>
